<mxfile host="app.diagrams.net" modified="2023-05-20T14:03:17.018Z" agent="Mozilla/5.0 (X11; Linux x86_64; rv:109.0) Gecko/20100101 Firefox/112.0" etag="Wd5anxR5jQwUB5ryJxDF" version="21.3.2" type="device">
  <diagram name="Page-1" id="gsUIkakVuKVKxuPf0S4h">
    <mxGraphModel dx="819" dy="451" grid="1" gridSize="10" guides="1" tooltips="1" connect="1" arrows="1" fold="1" page="1" pageScale="1" pageWidth="850" pageHeight="1100" math="0" shadow="0">
      <root>
        <mxCell id="0" />
        <mxCell id="1" parent="0" />
        <mxCell id="bpvTyGe3TMejVz6gSZYc-5" style="edgeStyle=orthogonalEdgeStyle;rounded=0;orthogonalLoop=1;jettySize=auto;html=1;exitX=1;exitY=0.5;exitDx=0;exitDy=0;entryX=0;entryY=0.5;entryDx=0;entryDy=0;" edge="1" parent="1" source="bpvTyGe3TMejVz6gSZYc-1" target="bpvTyGe3TMejVz6gSZYc-3">
          <mxGeometry relative="1" as="geometry" />
        </mxCell>
        <mxCell id="bpvTyGe3TMejVz6gSZYc-10" style="edgeStyle=orthogonalEdgeStyle;rounded=0;orthogonalLoop=1;jettySize=auto;html=1;exitX=1;exitY=0;exitDx=0;exitDy=0;entryX=0.5;entryY=0;entryDx=0;entryDy=0;curved=1;" edge="1" parent="1" source="bpvTyGe3TMejVz6gSZYc-1" target="bpvTyGe3TMejVz6gSZYc-4">
          <mxGeometry relative="1" as="geometry">
            <Array as="points">
              <mxPoint x="208" y="90" />
              <mxPoint x="480" y="90" />
            </Array>
          </mxGeometry>
        </mxCell>
        <mxCell id="bpvTyGe3TMejVz6gSZYc-1" value="&lt;div&gt;s0&lt;/div&gt;" style="ellipse;whiteSpace=wrap;html=1;aspect=fixed;" vertex="1" parent="1">
          <mxGeometry x="140" y="120" width="80" height="80" as="geometry" />
        </mxCell>
        <mxCell id="bpvTyGe3TMejVz6gSZYc-2" value="" style="endArrow=classic;html=1;rounded=0;entryX=0;entryY=0.5;entryDx=0;entryDy=0;" edge="1" parent="1" target="bpvTyGe3TMejVz6gSZYc-1">
          <mxGeometry width="50" height="50" relative="1" as="geometry">
            <mxPoint x="70" y="160" as="sourcePoint" />
            <mxPoint x="50" y="150" as="targetPoint" />
          </mxGeometry>
        </mxCell>
        <mxCell id="bpvTyGe3TMejVz6gSZYc-14" style="edgeStyle=orthogonalEdgeStyle;rounded=0;orthogonalLoop=1;jettySize=auto;html=1;exitX=1;exitY=0.5;exitDx=0;exitDy=0;entryX=0;entryY=0.5;entryDx=0;entryDy=0;" edge="1" parent="1" source="bpvTyGe3TMejVz6gSZYc-3" target="bpvTyGe3TMejVz6gSZYc-8">
          <mxGeometry relative="1" as="geometry" />
        </mxCell>
        <mxCell id="bpvTyGe3TMejVz6gSZYc-3" value="&lt;div&gt;s1&lt;/div&gt;" style="ellipse;whiteSpace=wrap;html=1;aspect=fixed;" vertex="1" parent="1">
          <mxGeometry x="280" y="120" width="80" height="80" as="geometry" />
        </mxCell>
        <mxCell id="bpvTyGe3TMejVz6gSZYc-16" style="edgeStyle=orthogonalEdgeStyle;rounded=0;orthogonalLoop=1;jettySize=auto;html=1;exitX=0.5;exitY=1;exitDx=0;exitDy=0;entryX=1;entryY=1;entryDx=0;entryDy=0;curved=1;" edge="1" parent="1" source="bpvTyGe3TMejVz6gSZYc-8" target="bpvTyGe3TMejVz6gSZYc-3">
          <mxGeometry relative="1" as="geometry" />
        </mxCell>
        <mxCell id="bpvTyGe3TMejVz6gSZYc-18" style="edgeStyle=orthogonalEdgeStyle;rounded=0;orthogonalLoop=1;jettySize=auto;html=1;exitX=1;exitY=0.5;exitDx=0;exitDy=0;entryX=1;entryY=1;entryDx=0;entryDy=0;curved=1;" edge="1" parent="1" source="bpvTyGe3TMejVz6gSZYc-8" target="bpvTyGe3TMejVz6gSZYc-8">
          <mxGeometry relative="1" as="geometry">
            <mxPoint x="620" y="190" as="targetPoint" />
            <Array as="points">
              <mxPoint x="580" y="160" />
              <mxPoint x="580" y="192" />
            </Array>
          </mxGeometry>
        </mxCell>
        <mxCell id="bpvTyGe3TMejVz6gSZYc-8" value="s2" style="ellipse;whiteSpace=wrap;html=1;aspect=fixed;" vertex="1" parent="1">
          <mxGeometry x="435" y="115" width="90" height="90" as="geometry" />
        </mxCell>
        <mxCell id="bpvTyGe3TMejVz6gSZYc-4" value="s2" style="ellipse;whiteSpace=wrap;html=1;aspect=fixed;" vertex="1" parent="1">
          <mxGeometry x="440" y="120" width="80" height="80" as="geometry" />
        </mxCell>
        <mxCell id="bpvTyGe3TMejVz6gSZYc-6" value="&lt;div&gt;0&lt;/div&gt;" style="text;html=1;align=center;verticalAlign=middle;resizable=0;points=[];autosize=1;strokeColor=none;fillColor=none;" vertex="1" parent="1">
          <mxGeometry x="235" y="138" width="30" height="30" as="geometry" />
        </mxCell>
        <mxCell id="bpvTyGe3TMejVz6gSZYc-11" value="&lt;div&gt;1&lt;/div&gt;" style="text;html=1;align=center;verticalAlign=middle;resizable=0;points=[];autosize=1;strokeColor=none;fillColor=none;" vertex="1" parent="1">
          <mxGeometry x="330" y="60" width="30" height="30" as="geometry" />
        </mxCell>
        <mxCell id="bpvTyGe3TMejVz6gSZYc-12" style="edgeStyle=orthogonalEdgeStyle;rounded=0;orthogonalLoop=1;jettySize=auto;html=1;exitX=0;exitY=1;exitDx=0;exitDy=0;entryX=0.5;entryY=1;entryDx=0;entryDy=0;curved=1;" edge="1" parent="1" source="bpvTyGe3TMejVz6gSZYc-3" target="bpvTyGe3TMejVz6gSZYc-3">
          <mxGeometry relative="1" as="geometry">
            <Array as="points">
              <mxPoint x="292" y="240" />
              <mxPoint x="320" y="240" />
            </Array>
          </mxGeometry>
        </mxCell>
        <mxCell id="bpvTyGe3TMejVz6gSZYc-13" value="0" style="text;html=1;align=center;verticalAlign=middle;resizable=0;points=[];autosize=1;strokeColor=none;fillColor=none;" vertex="1" parent="1">
          <mxGeometry x="290" y="240" width="30" height="30" as="geometry" />
        </mxCell>
        <mxCell id="bpvTyGe3TMejVz6gSZYc-15" value="1" style="text;html=1;align=center;verticalAlign=middle;resizable=0;points=[];autosize=1;strokeColor=none;fillColor=none;" vertex="1" parent="1">
          <mxGeometry x="385" y="158" width="30" height="30" as="geometry" />
        </mxCell>
        <mxCell id="bpvTyGe3TMejVz6gSZYc-17" value="0" style="text;html=1;align=center;verticalAlign=middle;resizable=0;points=[];autosize=1;strokeColor=none;fillColor=none;" vertex="1" parent="1">
          <mxGeometry x="415" y="218" width="30" height="30" as="geometry" />
        </mxCell>
        <mxCell id="bpvTyGe3TMejVz6gSZYc-19" value="1" style="text;html=1;align=center;verticalAlign=middle;resizable=0;points=[];autosize=1;strokeColor=none;fillColor=none;" vertex="1" parent="1">
          <mxGeometry x="580" y="158" width="30" height="30" as="geometry" />
        </mxCell>
      </root>
    </mxGraphModel>
  </diagram>
</mxfile>
